<?xml version="1.0" encoding="utf-8"?>
<!-- Generator: Adobe Illustrator 23.0.1, SVG Export Plug-In . SVG Version: 6.00 Build 0)  -->
<svg version="1.1"
	 id="svg3769" inkscape:version="0.92.5 (2060ec1f9f, 2020-04-08)" sodipodi:docname="photoMask.svg" xmlns:cc="http://creativecommons.org/ns#" xmlns:dc="http://purl.org/dc/elements/1.1/" xmlns:inkscape="http://www.inkscape.org/namespaces/inkscape" xmlns:rdf="http://www.w3.org/1999/02/22-rdf-syntax-ns#" xmlns:sodipodi="http://sodipodi.sourceforge.net/DTD/sodipodi-0.dtd" xmlns:svg="http://www.w3.org/2000/svg"
	 xmlns="http://www.w3.org/2000/svg" xmlns:xlink="http://www.w3.org/1999/xlink" x="0px" y="0px" viewBox="0 0 141.7 141.7"
	 style="enable-background:new 0 0 141.7 141.7;" xml:space="preserve">
<style type="text/css">
	.st0{fill:url(#rect3779_1_);}
</style>
<g id="layer1" inkscape:groupmode="layer" inkscape:label="Calque 1">
	
		<linearGradient id="rect3779_1_" gradientUnits="userSpaceOnUse" x1="169.8216" y1="24.2377" x2="169.8216" y2="-665.8676" gradientTransform="matrix(0.75 0 0 -0.75 -56.5 18.5864)">
		<stop  offset="0" style="stop-color:#FFFFFF"/>
		<stop  offset="1" style="stop-color:#FFFFFF;stop-opacity:0"/>
	</linearGradient>
	<path id="rect3779" inkscape:connector-curvature="0" class="st0" d="M0,0v141.7h141.7V0H0z M70.9,5.3c36,0,65.2,29.2,65.2,65.2
		c0,0,0,0,0,0c0,36-29.2,65.2-65.2,65.2c0,0,0,0,0,0c-36,0-65.2-29.2-65.2-65.2c0,0,0,0,0,0C5.7,34.5,34.9,5.3,70.9,5.3
		C70.9,5.3,70.9,5.3,70.9,5.3z"/>
</g>
</svg>
