<svg width="150" height="38" viewBox="0 0 150 38" fill="none" xmlns="http://www.w3.org/2000/svg">
<g clip-path="url(#clip0)">
<path d="M18.5404 0.683533V4.88275H4.73373V13.1835H16.075V17.1874H4.73373V29.3945H0V0.683533H18.5404Z" fill="#911C1C"/>
<path d="M25.9369 0.78125C26.4299 1.26953 26.7258 1.95312 26.7258 2.73437C26.7258 3.51562 26.4299 4.10156 25.9369 4.58984C25.4438 5.07812 24.7534 5.37109 23.9645 5.37109C23.1755 5.37109 22.5838 5.07812 21.9921 4.58984C21.499 4.10156 21.2031 3.41797 21.2031 2.73437C21.2031 1.95312 21.499 1.36719 21.9921 0.78125C22.4852 0.292969 23.1755 0 23.9645 0C24.7534 0 25.3451 0.292969 25.9369 0.78125ZM26.1341 8.39844V29.3945H21.6962V8.39844H26.1341Z" fill="#911C1C"/>
<path d="M32.4457 27.7344C30.6705 26.4648 29.783 24.707 29.783 22.4609H34.1222C34.2208 23.5352 34.7139 24.5117 35.7001 25.1953C36.6863 25.8789 37.8697 26.2695 39.349 26.2695C40.7297 26.2695 41.8145 25.9766 42.7021 25.4883C43.5897 25 43.9841 24.3164 43.9841 23.4375C43.9841 22.7539 43.7869 22.2656 43.3924 21.875C42.9979 21.4844 42.5049 21.2891 41.8145 21.0938C41.1242 20.8984 40.138 20.8008 38.8559 20.6055H38.7573L38.1656 20.5078C36.4891 20.3125 35.0098 20.0195 33.925 19.6289C32.8402 19.2383 31.854 18.6523 31.2622 17.8711C30.5719 17.0898 30.2761 16.1133 30.2761 14.7461C30.2761 13.4766 30.6705 12.3047 31.3609 11.3281C32.0512 10.3516 33.136 9.57031 34.4181 8.98438C35.7001 8.39844 37.1794 8.20312 38.8559 8.20312C41.5187 8.20312 43.6883 8.78906 45.2662 9.96094C46.9427 11.1328 47.8303 12.793 47.9289 14.9414H43.5897C43.491 13.9648 42.998 13.1836 42.1104 12.5977C41.2228 12.0117 40.138 11.6211 38.8559 11.6211C37.5739 11.6211 36.4891 11.9141 35.7987 12.4023C35.0098 12.8906 34.6153 13.5742 34.6153 14.4531C34.6153 15.0391 34.8125 15.5273 35.1084 15.8203C35.5029 16.1133 35.996 16.3086 36.5877 16.5039C37.1794 16.6016 38.067 16.7969 39.2504 16.8945C39.349 16.8945 39.349 16.8945 39.4477 16.8945C39.5463 16.8945 39.5463 16.8945 39.6449 16.8945C41.5187 17.0898 42.998 17.3828 44.28 17.7734C45.4634 18.1641 46.5482 18.75 47.2386 19.6289C48.0275 20.5078 48.422 21.6797 48.422 23.1445C48.422 24.4141 48.0275 25.5859 47.2386 26.5625C46.4496 27.5391 45.3648 28.3203 43.9841 28.9062C42.6035 29.3945 41.1242 29.6875 39.349 29.6875C36.4891 29.5898 34.2208 29.0039 32.4457 27.7344Z" fill="#911C1C"/>
<path d="M56.5089 0.683533V13.4765L55.8186 12.4999C56.5089 11.2304 57.4951 10.1562 58.6786 9.37494C59.862 8.59369 61.3413 8.20306 63.215 8.20306C65.7791 8.20306 67.8501 8.98431 69.4281 10.4492C71.006 12.0117 71.7949 14.4531 71.7949 17.871V29.3945H67.3571V18.0663C67.3571 16.1132 66.9626 14.5507 66.075 13.4765C65.1874 12.4023 63.9054 11.914 62.3275 11.914C61.144 11.914 60.1578 12.207 59.2703 12.6953C58.3827 13.2812 57.791 14.0624 57.2979 15.039C56.8048 16.0156 56.6075 17.2851 56.6075 18.6523V29.2968H52.1697V0.683533H56.5089Z" fill="#911C1C"/>
<path d="M112.13 8.39856L118.047 24.6095L123.767 8.39856H128.501L118.935 32.6173C118.442 33.8868 117.949 34.8634 117.554 35.547C117.16 36.2306 116.667 36.7189 115.976 37.0118C115.385 37.3048 114.596 37.5001 113.511 37.5001H108.679V33.5939H111.834C112.426 33.5939 112.919 33.4962 113.215 33.3986C113.511 33.3009 113.807 33.1056 114.004 32.8126C114.201 32.5196 114.398 32.0314 114.694 31.4454L115.582 29.3947L107.298 8.3009H112.13V8.39856Z" fill="#911C1C"/>
<path d="M134.418 28.2227C132.742 27.3438 131.46 26.0743 130.572 24.5118C129.684 22.8516 129.191 20.9962 129.191 18.8477C129.191 16.6993 129.586 14.7462 130.473 13.1837C131.361 11.6212 132.544 10.3516 134.122 9.47272C135.7 8.59381 137.475 8.10553 139.546 8.10553C141.617 8.10553 143.393 8.49615 144.97 9.2774C146.548 10.0587 147.732 11.2305 148.619 12.793C149.507 14.3555 150 16.1133 150 18.0665C150 18.3594 150 18.5547 150 18.8477C150 19.1407 150 19.4337 149.901 19.7266H133.925C133.925 19.8243 133.925 19.8243 133.925 19.8243V19.9219C134.024 21.0938 134.221 22.168 134.714 23.0469C135.207 23.9258 135.898 24.6094 136.785 25.0977C137.673 25.586 138.659 25.879 139.842 25.879C141.223 25.879 142.406 25.586 143.294 24.9024C144.28 24.2188 144.872 23.3399 145.168 22.168H149.704C149.408 23.5352 148.915 24.8048 148.028 25.879C147.14 26.9532 146.055 27.8321 144.773 28.5157C143.393 29.1016 141.913 29.4923 140.237 29.4923C138.067 29.5899 136.095 29.1016 134.418 28.2227ZM137.081 12.3047C136.292 12.6954 135.602 13.2813 135.109 14.0626C134.615 14.8438 134.221 15.6251 134.122 16.6016H145.464C145.266 15.0391 144.675 13.7696 143.688 12.9883C142.702 12.1094 141.322 11.7188 139.744 11.7188C138.856 11.6212 137.969 11.9141 137.081 12.3047Z" fill="#911C1C"/>
<path d="M101.578 5.95697H96.9428L94.2801 3.02728H85.503L82.8403 5.95697H78.2052C76.6273 5.95697 75.2466 7.2265 75.2466 8.88666V26.2695C75.2466 27.832 76.5286 29.1992 78.2052 29.1992H101.578C103.156 29.1992 104.537 27.9296 104.537 26.2695V8.789C104.537 7.2265 103.254 5.95697 101.578 5.95697ZM101.578 26.1718H78.3038V8.789H84.2209L86.8837 5.85931H93.0967L95.6608 8.789H101.578V26.1718ZM89.9409 10.2538C85.8975 10.2538 82.643 13.4765 82.643 17.4804C82.643 21.4843 85.8975 24.707 89.9409 24.707C93.9842 24.707 97.2387 21.4843 97.2387 17.4804C97.2387 13.4765 93.9842 10.2538 89.9409 10.2538ZM89.9409 21.8749C87.574 21.8749 85.6016 19.9218 85.6016 17.5781C85.6016 15.2343 87.574 13.2812 89.9409 13.2812C92.3077 13.2812 94.2801 15.2343 94.2801 17.5781C94.2801 19.9218 92.3077 21.8749 89.9409 21.8749Z" fill="#911C1C"/>
</g>
<defs>
<clipPath id="clip0">
<rect width="150" height="37.5" fill="white"/>
</clipPath>
</defs>
</svg>
